<?xml version="1.0" encoding="iso-8859-1"?>
<!-- Generator: Adobe Illustrator 19.0.0, SVG Export Plug-In . SVG Version: 6.00 Build 0)  -->
<svg version="1.1" id="Capa_1" xmlns="http://www.w3.org/2000/svg" xmlns:xlink="http://www.w3.org/1999/xlink" x="0px" y="0px"
	 viewBox="0 0 512 512" style="enable-background:new 0 0 512 512;" xml:space="preserve">
<g>
	<g>
		<path d="M502.461,197.791c-8.595-11.026-21.542-17.349-35.522-17.349h-99.413L268.177,51.267
			c-2.907-3.78-7.405-5.995-12.175-5.995c-4.77,0-9.268,2.215-12.175,5.995l-99.348,129.174H45.061
			c-13.98,0-26.928,6.324-35.522,17.349c-8.594,11.025-11.568,25.125-8.157,38.681l49.37,196.206
			c5.045,20.048,23.006,34.05,43.678,34.05h323.139c20.672,0,38.633-14.002,43.679-34.051l49.369-196.205
			C514.029,222.916,511.055,208.816,502.461,197.791z M256.002,85.825l72.769,94.616H183.233L256.002,85.825z M480.826,228.977
			l-49.368,196.204c-1.604,6.376-7.315,10.828-13.888,10.828H94.429c-6.573,0-12.284-4.453-13.888-10.827l-49.37-196.205
			c-1.085-4.311-0.14-8.794,2.593-12.3s6.849-5.517,11.295-5.517h421.878c4.446,0,8.562,2.011,11.295,5.517
			S481.911,224.666,480.826,228.977z"/>
	</g>
</g>
<g>
	<g>
		<path d="M256,262.85c-33.489,0-60.734,27.246-60.734,60.734s27.246,60.734,60.734,60.734c33.489,0,60.734-27.246,60.734-60.734
			S289.489,262.85,256,262.85z M256,353.601c-16.55,0-30.016-13.465-30.016-30.016S239.449,293.57,256,293.57
			c16.55,0,30.015,13.465,30.015,30.016S272.55,353.601,256,353.601z"/>
	</g>
</g>
<g>
</g>
<g>
</g>
<g>
</g>
<g>
</g>
<g>
</g>
<g>
</g>
<g>
</g>
<g>
</g>
<g>
</g>
<g>
</g>
<g>
</g>
<g>
</g>
<g>
</g>
<g>
</g>
<g>
</g>
</svg>
